<?xml version="1.0" encoding="UTF-8" standalone="no"?>
<!-- Created with Inkscape (http://www.inkscape.org/) -->

<svg
   xmlns:dc="http://purl.org/dc/elements/1.1/"
   xmlns:cc="http://creativecommons.org/ns#"
   xmlns:rdf="http://www.w3.org/1999/02/22-rdf-syntax-ns#"
   xmlns:svg="http://www.w3.org/2000/svg"
   xmlns="http://www.w3.org/2000/svg"
   xmlns:sodipodi="http://sodipodi.sourceforge.net/DTD/sodipodi-0.dtd"
   xmlns:inkscape="http://www.inkscape.org/namespaces/inkscape"
   width="17.137157mm"
   height="11.329872mm"
   viewBox="0 0 171.37156 113.29872"
   version="1.1"
   id="svg903"
   inkscape:version="0.92.3 (2405546, 2018-03-11)"
   sodipodi:docname="tsfresh_logo.svg">
  <defs
     id="defs897" />
  <sodipodi:namedview
     id="base"
     pagecolor="#ffffff"
     bordercolor="#666666"
     borderopacity="1.0"
     inkscape:pageopacity="0.0"
     inkscape:pageshadow="2"
     inkscape:zoom="11.2"
     inkscape:cx="21.403587"
     inkscape:cy="16.754349"
     inkscape:document-units="mm"
     inkscape:current-layer="g47"
     showgrid="false"
     inkscape:window-width="1920"
     inkscape:window-height="1061"
     inkscape:window-x="0"
     inkscape:window-y="0"
     inkscape:window-maximized="0"
     fit-margin-top="1"
     fit-margin-left="1"
     fit-margin-right="1"
     fit-margin-bottom="1" />
  <metadata
     id="metadata900">
    <rdf:RDF>
      <cc:Work
         rdf:about="">
        <dc:format>image/svg+xml</dc:format>
        <dc:type
           rdf:resource="http://purl.org/dc/dcmitype/StillImage" />
        <dc:title />
      </cc:Work>
    </rdf:RDF>
  </metadata>
  <g
     inkscape:label="Ebene 1"
     inkscape:groupmode="layer"
     id="layer1"
     transform="translate(-36.788564,-56.989826)">
    <g
       id="g47"
       transform="matrix(10,0,0,10,-331.09708,-512.90843)">
      <g
         aria-label="ts"
         style="font-style:normal;font-variant:normal;font-weight:normal;font-stretch:normal;font-size:4.23333311px;line-height:1.25;font-family:sans;-inkscape-font-specification:sans-serif;letter-spacing:0px;word-spacing:0px;fill:#000000;fill-opacity:1;stroke:none;stroke-width:0.26458332"
         id="text1070">
        <path
           d="m 38.772247,63.688399 v 0.657325 h 0.783415 v 0.295589 h -0.783415 v 1.256771 q 0,0.283186 0.07648,0.363802 0.07855,0.08061 0.31626,0.08061 h 0.390674 v 0.318327 h -0.390674 q -0.440283,0 -0.607715,-0.163298 -0.167431,-0.165364 -0.167431,-0.599446 v -1.256771 h -0.279053 v -0.295589 h 0.279053 v -0.657325 z"
           style="font-style:normal;font-variant:normal;font-weight:normal;font-stretch:normal;font-family:sans;-inkscape-font-specification:sans;stroke-width:0.26458332"
           id="path30" />
        <path
           d="m 41.533836,64.413936 v 0.359668 q -0.161231,-0.08268 -0.334864,-0.124023 -0.173632,-0.04134 -0.359668,-0.04134 -0.283186,0 -0.425813,0.08682 -0.14056,0.08682 -0.14056,0.260449 0,0.132292 0.101286,0.208773 0.101285,0.07441 0.40721,0.142627 l 0.130224,0.02894 q 0.405144,0.08682 0.574642,0.24598 0.171566,0.157096 0.171566,0.440283 0,0.322461 -0.256315,0.510563 -0.254248,0.188102 -0.700732,0.188102 -0.186036,0 -0.388607,-0.03721 -0.200505,-0.03514 -0.423747,-0.107487 v -0.392741 q 0.21084,0.109554 0.415479,0.165365 0.204638,0.05374 0.405143,0.05374 0.268717,0 0.413411,-0.09095 0.144694,-0.09302 0.144694,-0.260449 0,-0.15503 -0.10542,-0.237712 -0.103352,-0.08268 -0.456819,-0.159163 l -0.132292,-0.03101 q -0.353467,-0.07441 -0.510563,-0.227376 -0.157096,-0.15503 -0.157096,-0.423747 0,-0.326595 0.23151,-0.504362 0.23151,-0.177767 0.657324,-0.177767 0.21084,0 0.396875,0.03101 0.186035,0.03101 0.343132,0.09302 z"
           style="font-style:normal;font-variant:normal;font-weight:normal;font-stretch:normal;font-family:sans;-inkscape-font-specification:sans;stroke-width:0.26458332"
           id="path32" />
      </g>
      <path
         sodipodi:nodetypes="cc"
         inkscape:connector-curvature="0"
         id="path1084"
         d="M 37.788564,63.092818 H 52.925722"
         style="fill:none;stroke:#000000;stroke-width:0.1;stroke-linecap:butt;stroke-linejoin:miter;stroke-opacity:1" />
      <path
         style="fill:none;stroke:#000000;stroke-width:0.1;stroke-linecap:butt;stroke-linejoin:miter;stroke-opacity:1"
         d="M 42.08953,67.319698 V 60.066981"
         id="path1086"
         inkscape:connector-curvature="0"
         sodipodi:nodetypes="cc" />
      <g
         aria-label="fresh"
         style="font-style:normal;font-variant:normal;font-weight:normal;font-stretch:normal;font-size:4.23333311px;line-height:1.25;font-family:sans-serif;-inkscape-font-specification:sans-serif;letter-spacing:0px;word-spacing:0px;fill:#51b63c;fill-opacity:1;stroke:none;stroke-width:0.26458332"
         id="text1092">
        <path
           d="m 43.943144,63.468107 v 0.31626 h -0.363802 q -0.204638,0 -0.285254,0.08268 -0.07855,0.08268 -0.07855,0.297657 v 0.204638 h 0.626319 v 0.295589 H 43.21554 v 2.019515 h -0.382405 v -2.019515 h -0.363802 v -0.295589 h 0.363802 v -0.16123 q 0,-0.38654 0.179834,-0.56224 0.179834,-0.177767 0.570507,-0.177767 z"
           style="font-style:normal;font-variant:normal;font-weight:normal;font-stretch:normal;font-family:sans;-inkscape-font-specification:sans;fill:#51b63c;fill-opacity:1;stroke-width:0.26458332"
           id="path19" />
        <path
           d="m 45.600924,64.724878 q -0.06408,-0.03721 -0.14056,-0.05374 -0.07441,-0.0186 -0.165364,-0.0186 -0.322461,0 -0.496094,0.21084 -0.171566,0.208773 -0.171566,0.601514 v 1.219563 h -0.382405 v -2.315104 h 0.382405 v 0.359668 q 0.11989,-0.21084 0.312126,-0.312125 0.192236,-0.103353 0.467155,-0.103353 0.03927,0 0.08682,0.0062 0.04754,0.0041 0.10542,0.01447 z"
           style="font-style:normal;font-variant:normal;font-weight:normal;font-stretch:normal;font-family:sans;-inkscape-font-specification:sans;fill:#51b63c;fill-opacity:1;stroke-width:0.26458332"
           id="path21" />
        <path
           d="m 47.893291,65.431812 v 0.186035 H 46.14456 q 0.02481,0.392741 0.235645,0.599446 0.212907,0.204639 0.591178,0.204639 0.219108,0 0.423747,-0.05374 0.206705,-0.05374 0.409277,-0.16123 v 0.359668 q -0.204639,0.08682 -0.419613,0.132292 -0.214973,0.04547 -0.436149,0.04547 -0.553971,0 -0.878499,-0.322461 -0.322461,-0.322461 -0.322461,-0.872298 0,-0.568441 0.305925,-0.901237 0.307991,-0.334863 0.82889,-0.334863 0.467154,0 0.737939,0.30179 0.272852,0.299723 0.272852,0.816488 z m -0.380339,-0.111621 q -0.0041,-0.312126 -0.1757,-0.498161 -0.169499,-0.186035 -0.450618,-0.186035 -0.318327,0 -0.510563,0.179834 -0.19017,0.179834 -0.219109,0.506429 z"
           style="font-style:normal;font-variant:normal;font-weight:normal;font-stretch:normal;font-family:sans;-inkscape-font-specification:sans;fill:#51b63c;fill-opacity:1;stroke-width:0.26458332"
           id="path23" />
        <path
           d="m 49.993421,64.437557 v 0.359668 q -0.161231,-0.08268 -0.334864,-0.124023 -0.173632,-0.04134 -0.359667,-0.04134 -0.283187,0 -0.425814,0.08682 -0.14056,0.08682 -0.14056,0.260449 0,0.132292 0.101286,0.208773 0.101285,0.07441 0.40721,0.142627 l 0.130225,0.02894 q 0.405143,0.08682 0.574641,0.245979 0.171566,0.157097 0.171566,0.440284 0,0.32246 -0.256315,0.510563 -0.254248,0.188102 -0.700732,0.188102 -0.186035,0 -0.388607,-0.03721 -0.200505,-0.03514 -0.423747,-0.107487 v -0.392741 q 0.21084,0.109554 0.415479,0.165365 0.204638,0.05374 0.405143,0.05374 0.268717,0 0.413411,-0.09095 0.144694,-0.09302 0.144694,-0.26045 0,-0.155029 -0.10542,-0.237711 -0.103352,-0.08268 -0.456819,-0.159164 l -0.132292,-0.031 q -0.353467,-0.07442 -0.510563,-0.227377 -0.157096,-0.155029 -0.157096,-0.423746 0,-0.326596 0.23151,-0.504362 0.231511,-0.177767 0.657324,-0.177767 0.21084,0 0.396875,0.03101 0.186035,0.03101 0.343132,0.09302 z"
           style="font-style:normal;font-variant:normal;font-weight:normal;font-stretch:normal;font-family:sans;-inkscape-font-specification:sans;fill:#51b63c;fill-opacity:1;stroke-width:0.26458332"
           id="path25" />
        <path
           d="m 52.649589,65.287118 v 1.39733 H 52.26925 V 65.29952 q 0,-0.328662 -0.128157,-0.49196 -0.128158,-0.163297 -0.384473,-0.163297 -0.307991,0 -0.485758,0.19637 -0.177767,0.196371 -0.177767,0.535368 v 1.308447 h -0.382406 v -3.216341 h 0.382406 v 1.260905 q 0.136426,-0.208773 0.320394,-0.312125 0.186035,-0.103353 0.427881,-0.103353 0.398942,0 0.60358,0.248047 0.204639,0.245979 0.204639,0.725537 z"
           style="font-style:normal;font-variant:normal;font-weight:normal;font-stretch:normal;font-family:sans;-inkscape-font-specification:sans;fill:#51b63c;fill-opacity:1;stroke-width:0.26458332"
           id="path27" />
      </g>
      <path
         style="fill:none;stroke:#000000;stroke-width:0.25;stroke-linecap:butt;stroke-linejoin:miter;stroke-opacity:1"
         d="m 42.549169,62.691488 1.793207,-2.12472 1.838413,1.311 1.958966,-2.245275 1.687723,1.084966 1.974034,-2.230207"
         id="path1094"
         inkscape:connector-curvature="0" />
      <path
         inkscape:connector-curvature="0"
         id="path1098"
         d="M 42.080405,66.729738 V 57.989826"
         style="fill:none;stroke:#000000;stroke-width:0.1;stroke-linecap:butt;stroke-linejoin:miter;stroke-opacity:1"
         sodipodi:nodetypes="cc" />
      <circle
         style="opacity:1;fill:#51b63c;fill-opacity:1;stroke:none;stroke-width:0.25;stroke-miterlimit:3.25;stroke-dasharray:none;stroke-dashoffset:0;stroke-opacity:1"
         id="circle1100"
         cx="44.342377"
         cy="60.566769"
         r="0.4252232" />
      <circle
         r="0.4252232"
         cy="59.632496"
         cx="48.139755"
         id="circle1102"
         style="opacity:1;fill:#51b63c;fill-opacity:1;stroke:none;stroke-width:0.25;stroke-miterlimit:3.25;stroke-dasharray:none;stroke-dashoffset:0;stroke-opacity:1" />
      <circle
         style="opacity:1;fill:#51b63c;fill-opacity:1;stroke:none;stroke-width:0.25;stroke-miterlimit:3.25;stroke-dasharray:none;stroke-dashoffset:0;stroke-opacity:1"
         id="circle1104"
         cx="51.801514"
         cy="58.487255"
         r="0.4252232" />
    </g>
  </g>
</svg>
